<svg width="63" height="63" viewBox="0 0 63 63" fill="none" xmlns="http://www.w3.org/2000/svg">
<g clip-path="url(#clip0_23_2)">
<path d="M0 62.3L4.5 45.6C1.9 41 0.6 35.9 0.6 30.8C0.6 13.8 14.4 0 31.4 0C48.4 0 62.2 13.8 62.2 30.8C62.2 47.8 48.4 61.6 31.4 61.6C26.3 61.6 21.3 60.3 16.8 57.9L0 62.3ZM17.6 51.5L18.7 52.1C22.6 54.4 27 55.6 31.4 55.6C45.2 55.6 56.3 44.4 56.3 30.7C56.3 17 45.1 5.8 31.4 5.8C17.6 5.8 6.4 17 6.4 30.8C6.4 35.3 7.7 39.8 10 43.7L10.6 44.8L8.2 54L17.6 51.5Z" fill="#111"/>
<path fill-rule="evenodd" clip-rule="evenodd" d="M42.8 35C41.5 34.2 39.9 33.4 38.4 34C37.3 34.5 36.5 36.3 35.8 37.2C35.4 37.7 35 37.7 34.4 37.5C30.1 35.8 26.8 32.9 24.4 29C24 28.4 24.1 27.9 24.6 27.3C25.3 26.5 26.2 25.5 26.4 24.4C26.6 23.3 26.1 21.9 25.6 20.9C25 19.6 24.3 17.8 23 17C21.8 16.3 20.2 16.7 19.2 17.6C17.4 19.1 16.5 21.4 16.5 23.7C16.5 24.4 16.6 25 16.7 25.6C17.1 27.1 17.8 28.6 18.6 29.9C19.2 30.9 19.8 31.9 20.6 32.9C22.9 36 25.8 38.7 29.1 40.8C30.8 41.8 32.5 42.7 34.4 43.3C36.5 44 38.3 44.7 40.5 44.3C42.8 43.9 45.1 42.4 46.1 40.2C46.4 39.5 46.5 38.8 46.4 38.1C45.9 36.6 44 35.7 42.8 35Z" fill="#111"/>
</g>
<defs>
<clipPath id="clip0_23_2">
<rect width="62.1" height="62.3" fill="#111"/>
</clipPath>
</defs>
</svg>
